<?xml version="1.0" encoding="UTF-8" standalone="no"?>
<!DOCTYPE svg PUBLIC "-//W3C//DTD SVG 1.1//EN"
 "http://www.w3.org/Graphics/SVG/1.1/DTD/svg11.dtd">
<!-- Generated by graphviz version 14.1.1 (20251213.1925)
 -->
<!-- Title: InheritanceTree Pages: 1 -->
<svg width="386pt" height="1437pt"
 viewBox="0.00 0.00 386.00 1437.00" xmlns="http://www.w3.org/2000/svg" xmlns:xlink="http://www.w3.org/1999/xlink">
<g id="graph0" class="graph" transform="scale(1 1) rotate(0) translate(4 1432.5)">
<title>InheritanceTree</title>
<polygon fill="white" stroke="none" points="-4,4 -4,-1432.5 381.75,-1432.5 381.75,4 -4,4"/>
<text xml:space="preserve" text-anchor="middle" x="188.88" y="-7.2" font-family="Times New Roman,serif" font-size="14.00">simple_k8s &#45; Inheritance Hierarchy</text>
<!-- K8S_AUTH -->
<g id="node1" class="node">
<title>K8S_AUTH</title>
<path fill="none" stroke="black" d="M104.88,-60.5C104.88,-60.5 44.62,-60.5 44.62,-60.5 38.62,-60.5 32.62,-54.5 32.62,-48.5 32.62,-48.5 32.62,-36.5 32.62,-36.5 32.62,-30.5 38.62,-24.5 44.62,-24.5 44.62,-24.5 104.88,-24.5 104.88,-24.5 110.88,-24.5 116.88,-30.5 116.88,-36.5 116.88,-36.5 116.88,-48.5 116.88,-48.5 116.88,-54.5 110.88,-60.5 104.88,-60.5"/>
<text xml:space="preserve" text-anchor="middle" x="74.75" y="-37.45" font-family="Times New Roman,serif" font-size="14.00">K8S_AUTH</text>
</g>
<!-- K8S_CLIENT -->
<g id="node2" class="node">
<title>K8S_CLIENT</title>
<path fill="none" stroke="black" d="M110.12,-132.5C110.12,-132.5 39.38,-132.5 39.38,-132.5 33.38,-132.5 27.38,-126.5 27.38,-120.5 27.38,-120.5 27.38,-108.5 27.38,-108.5 27.38,-102.5 33.38,-96.5 39.38,-96.5 39.38,-96.5 110.12,-96.5 110.12,-96.5 116.12,-96.5 122.12,-102.5 122.12,-108.5 122.12,-108.5 122.12,-120.5 122.12,-120.5 122.12,-126.5 116.12,-132.5 110.12,-132.5"/>
<text xml:space="preserve" text-anchor="middle" x="74.75" y="-109.45" font-family="Times New Roman,serif" font-size="14.00">K8S_CLIENT</text>
</g>
<!-- K8S_CONFIG -->
<g id="node3" class="node">
<title>K8S_CONFIG</title>
<path fill="none" stroke="black" d="M111.25,-204.5C111.25,-204.5 38.25,-204.5 38.25,-204.5 32.25,-204.5 26.25,-198.5 26.25,-192.5 26.25,-192.5 26.25,-180.5 26.25,-180.5 26.25,-174.5 32.25,-168.5 38.25,-168.5 38.25,-168.5 111.25,-168.5 111.25,-168.5 117.25,-168.5 123.25,-174.5 123.25,-180.5 123.25,-180.5 123.25,-192.5 123.25,-192.5 123.25,-198.5 117.25,-204.5 111.25,-204.5"/>
<text xml:space="preserve" text-anchor="middle" x="74.75" y="-181.45" font-family="Times New Roman,serif" font-size="14.00">K8S_CONFIG</text>
</g>
<!-- K8S_ERROR -->
<g id="node4" class="node">
<title>K8S_ERROR</title>
<path fill="none" stroke="black" d="M108.62,-276.5C108.62,-276.5 40.88,-276.5 40.88,-276.5 34.88,-276.5 28.88,-270.5 28.88,-264.5 28.88,-264.5 28.88,-252.5 28.88,-252.5 28.88,-246.5 34.88,-240.5 40.88,-240.5 40.88,-240.5 108.62,-240.5 108.62,-240.5 114.62,-240.5 120.62,-246.5 120.62,-252.5 120.62,-252.5 120.62,-264.5 120.62,-264.5 120.62,-270.5 114.62,-276.5 108.62,-276.5"/>
<text xml:space="preserve" text-anchor="middle" x="74.75" y="-253.45" font-family="Times New Roman,serif" font-size="14.00">K8S_ERROR</text>
</g>
<!-- K8S_HTTP -->
<g id="node5" class="node">
<title>K8S_HTTP</title>
<path fill="none" stroke="black" d="M103,-348.5C103,-348.5 46.5,-348.5 46.5,-348.5 40.5,-348.5 34.5,-342.5 34.5,-336.5 34.5,-336.5 34.5,-324.5 34.5,-324.5 34.5,-318.5 40.5,-312.5 46.5,-312.5 46.5,-312.5 103,-312.5 103,-312.5 109,-312.5 115,-318.5 115,-324.5 115,-324.5 115,-336.5 115,-336.5 115,-342.5 109,-348.5 103,-348.5"/>
<text xml:space="preserve" text-anchor="middle" x="74.75" y="-325.45" font-family="Times New Roman,serif" font-size="14.00">K8S_HTTP</text>
</g>
<!-- K8S_CONFIGMAP -->
<g id="node6" class="node">
<title>K8S_CONFIGMAP</title>
<path fill="none" stroke="black" d="M126.25,-420.5C126.25,-420.5 23.25,-420.5 23.25,-420.5 17.25,-420.5 11.25,-414.5 11.25,-408.5 11.25,-408.5 11.25,-396.5 11.25,-396.5 11.25,-390.5 17.25,-384.5 23.25,-384.5 23.25,-384.5 126.25,-384.5 126.25,-384.5 132.25,-384.5 138.25,-390.5 138.25,-396.5 138.25,-396.5 138.25,-408.5 138.25,-408.5 138.25,-414.5 132.25,-420.5 126.25,-420.5"/>
<text xml:space="preserve" text-anchor="middle" x="74.75" y="-397.45" font-family="Times New Roman,serif" font-size="14.00">K8S_CONFIGMAP</text>
</g>
<!-- K8S_DEPLOYMENT -->
<g id="node7" class="node">
<title>K8S_DEPLOYMENT</title>
<path fill="none" stroke="black" d="M132.25,-492.5C132.25,-492.5 17.25,-492.5 17.25,-492.5 11.25,-492.5 5.25,-486.5 5.25,-480.5 5.25,-480.5 5.25,-468.5 5.25,-468.5 5.25,-462.5 11.25,-456.5 17.25,-456.5 17.25,-456.5 132.25,-456.5 132.25,-456.5 138.25,-456.5 144.25,-462.5 144.25,-468.5 144.25,-468.5 144.25,-480.5 144.25,-480.5 144.25,-486.5 138.25,-492.5 132.25,-492.5"/>
<text xml:space="preserve" text-anchor="middle" x="74.75" y="-469.45" font-family="Times New Roman,serif" font-size="14.00">K8S_DEPLOYMENT</text>
</g>
<!-- K8S_NAMESPACE -->
<g id="node8" class="node">
<title>K8S_NAMESPACE</title>
<path fill="none" stroke="black" d="M127,-564.5C127,-564.5 22.5,-564.5 22.5,-564.5 16.5,-564.5 10.5,-558.5 10.5,-552.5 10.5,-552.5 10.5,-540.5 10.5,-540.5 10.5,-534.5 16.5,-528.5 22.5,-528.5 22.5,-528.5 127,-528.5 127,-528.5 133,-528.5 139,-534.5 139,-540.5 139,-540.5 139,-552.5 139,-552.5 139,-558.5 133,-564.5 127,-564.5"/>
<text xml:space="preserve" text-anchor="middle" x="74.75" y="-541.45" font-family="Times New Roman,serif" font-size="14.00">K8S_NAMESPACE</text>
</g>
<!-- K8S_POD -->
<g id="node9" class="node">
<title>K8S_POD</title>
<path fill="none" stroke="black" d="M99.62,-636.5C99.62,-636.5 49.88,-636.5 49.88,-636.5 43.88,-636.5 37.88,-630.5 37.88,-624.5 37.88,-624.5 37.88,-612.5 37.88,-612.5 37.88,-606.5 43.88,-600.5 49.88,-600.5 49.88,-600.5 99.62,-600.5 99.62,-600.5 105.62,-600.5 111.62,-606.5 111.62,-612.5 111.62,-612.5 111.62,-624.5 111.62,-624.5 111.62,-630.5 105.62,-636.5 99.62,-636.5"/>
<text xml:space="preserve" text-anchor="middle" x="74.75" y="-613.45" font-family="Times New Roman,serif" font-size="14.00">K8S_POD</text>
</g>
<!-- K8S_SECRET -->
<g id="node10" class="node">
<title>K8S_SECRET</title>
<path fill="none" stroke="black" d="M111.25,-708.5C111.25,-708.5 38.25,-708.5 38.25,-708.5 32.25,-708.5 26.25,-702.5 26.25,-696.5 26.25,-696.5 26.25,-684.5 26.25,-684.5 26.25,-678.5 32.25,-672.5 38.25,-672.5 38.25,-672.5 111.25,-672.5 111.25,-672.5 117.25,-672.5 123.25,-678.5 123.25,-684.5 123.25,-684.5 123.25,-696.5 123.25,-696.5 123.25,-702.5 117.25,-708.5 111.25,-708.5"/>
<text xml:space="preserve" text-anchor="middle" x="74.75" y="-685.45" font-family="Times New Roman,serif" font-size="14.00">K8S_SECRET</text>
</g>
<!-- K8S_SERVICE -->
<g id="node11" class="node">
<title>K8S_SERVICE</title>
<path fill="none" stroke="black" d="M113.88,-780.5C113.88,-780.5 35.62,-780.5 35.62,-780.5 29.62,-780.5 23.62,-774.5 23.62,-768.5 23.62,-768.5 23.62,-756.5 23.62,-756.5 23.62,-750.5 29.62,-744.5 35.62,-744.5 35.62,-744.5 113.88,-744.5 113.88,-744.5 119.88,-744.5 125.88,-750.5 125.88,-756.5 125.88,-756.5 125.88,-768.5 125.88,-768.5 125.88,-774.5 119.88,-780.5 113.88,-780.5"/>
<text xml:space="preserve" text-anchor="middle" x="74.75" y="-757.45" font-family="Times New Roman,serif" font-size="14.00">K8S_SERVICE</text>
</g>
<!-- DEPLOYMENT_SPEC -->
<g id="node12" class="node">
<title>DEPLOYMENT_SPEC</title>
<path fill="none" stroke="black" d="M136.38,-852.5C136.38,-852.5 13.12,-852.5 13.12,-852.5 7.12,-852.5 1.12,-846.5 1.12,-840.5 1.12,-840.5 1.12,-828.5 1.12,-828.5 1.12,-822.5 7.12,-816.5 13.12,-816.5 13.12,-816.5 136.38,-816.5 136.38,-816.5 142.38,-816.5 148.38,-822.5 148.38,-828.5 148.38,-828.5 148.38,-840.5 148.38,-840.5 148.38,-846.5 142.38,-852.5 136.38,-852.5"/>
<text xml:space="preserve" text-anchor="middle" x="74.75" y="-829.45" font-family="Times New Roman,serif" font-size="14.00">DEPLOYMENT_SPEC</text>
</g>
<!-- POD_SPEC -->
<g id="node13" class="node">
<title>POD_SPEC</title>
<path fill="none" stroke="black" d="M103.75,-924.5C103.75,-924.5 45.75,-924.5 45.75,-924.5 39.75,-924.5 33.75,-918.5 33.75,-912.5 33.75,-912.5 33.75,-900.5 33.75,-900.5 33.75,-894.5 39.75,-888.5 45.75,-888.5 45.75,-888.5 103.75,-888.5 103.75,-888.5 109.75,-888.5 115.75,-894.5 115.75,-900.5 115.75,-900.5 115.75,-912.5 115.75,-912.5 115.75,-918.5 109.75,-924.5 103.75,-924.5"/>
<text xml:space="preserve" text-anchor="middle" x="74.75" y="-901.45" font-family="Times New Roman,serif" font-size="14.00">POD_SPEC</text>
</g>
<!-- SERVICE_PORT -->
<g id="node14" class="node">
<title>SERVICE_PORT</title>
<path fill="none" stroke="black" d="M118.75,-996.5C118.75,-996.5 30.75,-996.5 30.75,-996.5 24.75,-996.5 18.75,-990.5 18.75,-984.5 18.75,-984.5 18.75,-972.5 18.75,-972.5 18.75,-966.5 24.75,-960.5 30.75,-960.5 30.75,-960.5 118.75,-960.5 118.75,-960.5 124.75,-960.5 130.75,-966.5 130.75,-972.5 130.75,-972.5 130.75,-984.5 130.75,-984.5 130.75,-990.5 124.75,-996.5 118.75,-996.5"/>
<text xml:space="preserve" text-anchor="middle" x="74.75" y="-973.45" font-family="Times New Roman,serif" font-size="14.00">SERVICE_PORT</text>
</g>
<!-- SERVICE_SPEC -->
<g id="node15" class="node">
<title>SERVICE_SPEC</title>
<path fill="none" stroke="black" d="M118,-1068.5C118,-1068.5 31.5,-1068.5 31.5,-1068.5 25.5,-1068.5 19.5,-1062.5 19.5,-1056.5 19.5,-1056.5 19.5,-1044.5 19.5,-1044.5 19.5,-1038.5 25.5,-1032.5 31.5,-1032.5 31.5,-1032.5 118,-1032.5 118,-1032.5 124,-1032.5 130,-1038.5 130,-1044.5 130,-1044.5 130,-1056.5 130,-1056.5 130,-1062.5 124,-1068.5 118,-1068.5"/>
<text xml:space="preserve" text-anchor="middle" x="74.75" y="-1045.45" font-family="Times New Roman,serif" font-size="14.00">SERVICE_SPEC</text>
</g>
<!-- K8S_CI_QUICK -->
<g id="node16" class="node">
<title>K8S_CI_QUICK</title>
<path fill="none" stroke="black" d="M117.62,-1140.5C117.62,-1140.5 31.88,-1140.5 31.88,-1140.5 25.88,-1140.5 19.88,-1134.5 19.88,-1128.5 19.88,-1128.5 19.88,-1116.5 19.88,-1116.5 19.88,-1110.5 25.88,-1104.5 31.88,-1104.5 31.88,-1104.5 117.62,-1104.5 117.62,-1104.5 123.62,-1104.5 129.62,-1110.5 129.62,-1116.5 129.62,-1116.5 129.62,-1128.5 129.62,-1128.5 129.62,-1134.5 123.62,-1140.5 117.62,-1140.5"/>
<text xml:space="preserve" text-anchor="middle" x="74.75" y="-1117.45" font-family="Times New Roman,serif" font-size="14.00">K8S_CI_QUICK</text>
</g>
<!-- KUBECTL_QUICK -->
<g id="node17" class="node">
<title>KUBECTL_QUICK</title>
<path fill="none" stroke="black" d="M126.62,-1212.5C126.62,-1212.5 22.88,-1212.5 22.88,-1212.5 16.88,-1212.5 10.88,-1206.5 10.88,-1200.5 10.88,-1200.5 10.88,-1188.5 10.88,-1188.5 10.88,-1182.5 16.88,-1176.5 22.88,-1176.5 22.88,-1176.5 126.62,-1176.5 126.62,-1176.5 132.62,-1176.5 138.62,-1182.5 138.62,-1188.5 138.62,-1188.5 138.62,-1200.5 138.62,-1200.5 138.62,-1206.5 132.62,-1212.5 126.62,-1212.5"/>
<text xml:space="preserve" text-anchor="middle" x="74.75" y="-1189.45" font-family="Times New Roman,serif" font-size="14.00">KUBECTL_QUICK</text>
</g>
<!-- MANIFEST_BUILDER -->
<g id="node18" class="node">
<title>MANIFEST_BUILDER</title>
<path fill="none" stroke="black" d="M137.5,-1284.5C137.5,-1284.5 12,-1284.5 12,-1284.5 6,-1284.5 0,-1278.5 0,-1272.5 0,-1272.5 0,-1260.5 0,-1260.5 0,-1254.5 6,-1248.5 12,-1248.5 12,-1248.5 137.5,-1248.5 137.5,-1248.5 143.5,-1248.5 149.5,-1254.5 149.5,-1260.5 149.5,-1260.5 149.5,-1272.5 149.5,-1272.5 149.5,-1278.5 143.5,-1284.5 137.5,-1284.5"/>
<text xml:space="preserve" text-anchor="middle" x="74.75" y="-1261.45" font-family="Times New Roman,serif" font-size="14.00">MANIFEST_BUILDER</text>
</g>
<!-- ANY -->
<g id="node19" class="node">
<title>ANY</title>
<path fill="none" stroke="black" d="M332.62,-1284.5C332.62,-1284.5 302.62,-1284.5 302.62,-1284.5 296.62,-1284.5 290.62,-1278.5 290.62,-1272.5 290.62,-1272.5 290.62,-1260.5 290.62,-1260.5 290.62,-1254.5 296.62,-1248.5 302.62,-1248.5 302.62,-1248.5 332.62,-1248.5 332.62,-1248.5 338.62,-1248.5 344.62,-1254.5 344.62,-1260.5 344.62,-1260.5 344.62,-1272.5 344.62,-1272.5 344.62,-1278.5 338.62,-1284.5 332.62,-1284.5"/>
<text xml:space="preserve" text-anchor="middle" x="317.62" y="-1261.45" font-family="Times New Roman,serif" font-size="14.00">ANY</text>
</g>
<!-- MANIFEST_BUILDER&#45;&gt;ANY -->
<g id="edge1" class="edge">
<title>MANIFEST_BUILDER&#45;&gt;ANY</title>
<path fill="none" stroke="black" d="M149.93,-1266.5C149.93,-1266.5 278.69,-1266.5 278.69,-1266.5"/>
<polygon fill="none" stroke="black" points="278.69,-1270 288.69,-1266.5 278.69,-1263 278.69,-1270"/>
</g>
<!-- LIB_TESTS -->
<g id="node20" class="node">
<title>LIB_TESTS</title>
<path fill="none" stroke="black" d="M104.88,-1356.5C104.88,-1356.5 44.62,-1356.5 44.62,-1356.5 38.62,-1356.5 32.62,-1350.5 32.62,-1344.5 32.62,-1344.5 32.62,-1332.5 32.62,-1332.5 32.62,-1326.5 38.62,-1320.5 44.62,-1320.5 44.62,-1320.5 104.88,-1320.5 104.88,-1320.5 110.88,-1320.5 116.88,-1326.5 116.88,-1332.5 116.88,-1332.5 116.88,-1344.5 116.88,-1344.5 116.88,-1350.5 110.88,-1356.5 104.88,-1356.5"/>
<text xml:space="preserve" text-anchor="middle" x="74.75" y="-1333.45" font-family="Times New Roman,serif" font-size="14.00">LIB_TESTS</text>
</g>
<!-- TEST_SET_BASE -->
<g id="node21" class="node">
<title>TEST_SET_BASE</title>
<path fill="none" stroke="black" d="M365.75,-1356.5C365.75,-1356.5 269.5,-1356.5 269.5,-1356.5 263.5,-1356.5 257.5,-1350.5 257.5,-1344.5 257.5,-1344.5 257.5,-1332.5 257.5,-1332.5 257.5,-1326.5 263.5,-1320.5 269.5,-1320.5 269.5,-1320.5 365.75,-1320.5 365.75,-1320.5 371.75,-1320.5 377.75,-1326.5 377.75,-1332.5 377.75,-1332.5 377.75,-1344.5 377.75,-1344.5 377.75,-1350.5 371.75,-1356.5 365.75,-1356.5"/>
<text xml:space="preserve" text-anchor="middle" x="317.62" y="-1333.45" font-family="Times New Roman,serif" font-size="14.00">TEST_SET_BASE</text>
</g>
<!-- LIB_TESTS&#45;&gt;TEST_SET_BASE -->
<g id="edge2" class="edge">
<title>LIB_TESTS&#45;&gt;TEST_SET_BASE</title>
<path fill="none" stroke="black" d="M117.33,-1338.5C117.33,-1338.5 245.77,-1338.5 245.77,-1338.5"/>
<polygon fill="none" stroke="black" points="245.77,-1342 255.77,-1338.5 245.77,-1335 245.77,-1342"/>
</g>
<!-- TEST_APP -->
<g id="node22" class="node">
<title>TEST_APP</title>
<path fill="none" stroke="black" d="M102.62,-1428.5C102.62,-1428.5 46.88,-1428.5 46.88,-1428.5 40.88,-1428.5 34.88,-1422.5 34.88,-1416.5 34.88,-1416.5 34.88,-1404.5 34.88,-1404.5 34.88,-1398.5 40.88,-1392.5 46.88,-1392.5 46.88,-1392.5 102.62,-1392.5 102.62,-1392.5 108.62,-1392.5 114.62,-1398.5 114.62,-1404.5 114.62,-1404.5 114.62,-1416.5 114.62,-1416.5 114.62,-1422.5 108.62,-1428.5 102.62,-1428.5"/>
<text xml:space="preserve" text-anchor="middle" x="74.75" y="-1405.45" font-family="Times New Roman,serif" font-size="14.00">TEST_APP</text>
</g>
</g>
</svg>
