<?xml version="1.0" encoding="UTF-8" standalone="no"?>
<!DOCTYPE svg PUBLIC "-//W3C//DTD SVG 1.1//EN"
 "http://www.w3.org/Graphics/SVG/1.1/DTD/svg11.dtd">
<!-- Generated by graphviz version 14.1.1 (20251213.1925)
 -->
<!-- Title: Dependencies Pages: 1 -->
<svg width="327pt" height="717pt"
 viewBox="0.00 0.00 327.00 717.00" xmlns="http://www.w3.org/2000/svg" xmlns:xlink="http://www.w3.org/1999/xlink">
<g id="graph0" class="graph" transform="scale(1 1) rotate(0) translate(4 712.5)">
<title>Dependencies</title>
<polygon fill="white" stroke="none" points="-4,4 -4,-712.5 323.25,-712.5 323.25,4 -4,4"/>
<text xml:space="preserve" text-anchor="middle" x="159.62" y="-7.2" font-family="Times New Roman,serif" font-size="14.00">simple_k8s &#45; Dependencies</text>
<!-- simple_k8s -->
<g id="node1" class="node">
<title>simple_k8s</title>
<polygon fill="lightblue" stroke="black" points="78.25,-384.5 0,-384.5 0,-348.5 78.25,-348.5 78.25,-384.5"/>
<text xml:space="preserve" text-anchor="middle" x="39.12" y="-361.45" font-family="Times New Roman,serif" font-size="14.00">simple_k8s</text>
</g>
<!-- simple_env -->
<g id="node2" class="node">
<title>simple_env</title>
<polygon fill="lightblue" stroke="black" points="310.25,-708.5 231.25,-708.5 231.25,-672.5 310.25,-672.5 310.25,-708.5"/>
<text xml:space="preserve" text-anchor="middle" x="270.75" y="-685.45" font-family="Times New Roman,serif" font-size="14.00">simple_env</text>
</g>
<!-- simple_k8s&#45;&gt;simple_env -->
<g id="edge1" class="edge">
<title>simple_k8s&#45;&gt;simple_env</title>
<path fill="none" stroke="black" stroke-dasharray="5,2" d="M13.25,-384.85C13.25,-453.39 13.25,-690.5 13.25,-690.5 13.25,-690.5 219.28,-690.5 219.28,-690.5"/>
<polygon fill="black" stroke="black" points="219.28,-694 229.28,-690.5 219.28,-687 219.28,-694"/>
</g>
<!-- simple_file -->
<g id="node3" class="node">
<title>simple_file</title>
<polygon fill="lightblue" stroke="black" points="309.5,-636.5 232,-636.5 232,-600.5 309.5,-600.5 309.5,-636.5"/>
<text xml:space="preserve" text-anchor="middle" x="270.75" y="-613.45" font-family="Times New Roman,serif" font-size="14.00">simple_file</text>
</g>
<!-- simple_k8s&#45;&gt;simple_file -->
<g id="edge2" class="edge">
<title>simple_k8s&#45;&gt;simple_file</title>
<path fill="none" stroke="black" stroke-dasharray="5,2" d="M26.25,-384.62C26.25,-442.4 26.25,-618.5 26.25,-618.5 26.25,-618.5 220.22,-618.5 220.22,-618.5"/>
<polygon fill="black" stroke="black" points="220.22,-622 230.22,-618.5 220.22,-615 220.22,-622"/>
</g>
<!-- simple_http -->
<g id="node4" class="node">
<title>simple_http</title>
<polygon fill="lightblue" stroke="black" points="311,-564.5 230.5,-564.5 230.5,-528.5 311,-528.5 311,-564.5"/>
<text xml:space="preserve" text-anchor="middle" x="270.75" y="-541.45" font-family="Times New Roman,serif" font-size="14.00">simple_http</text>
</g>
<!-- simple_k8s&#45;&gt;simple_http -->
<g id="edge3" class="edge">
<title>simple_k8s&#45;&gt;simple_http</title>
<path fill="none" stroke="black" stroke-dasharray="5,2" d="M39.25,-384.75C39.25,-430.51 39.25,-546.5 39.25,-546.5 39.25,-546.5 218.65,-546.5 218.65,-546.5"/>
<polygon fill="black" stroke="black" points="218.65,-550 228.65,-546.5 218.65,-543 218.65,-550"/>
</g>
<!-- simple_json -->
<g id="node5" class="node">
<title>simple_json</title>
<polygon fill="lightblue" stroke="black" points="311.75,-492.5 229.75,-492.5 229.75,-456.5 311.75,-456.5 311.75,-492.5"/>
<text xml:space="preserve" text-anchor="middle" x="270.75" y="-469.45" font-family="Times New Roman,serif" font-size="14.00">simple_json</text>
</g>
<!-- simple_k8s&#45;&gt;simple_json -->
<g id="edge4" class="edge">
<title>simple_k8s&#45;&gt;simple_json</title>
<path fill="none" stroke="black" stroke-dasharray="5,2" d="M52.25,-384.82C52.25,-415.63 52.25,-474.5 52.25,-474.5 52.25,-474.5 217.88,-474.5 217.88,-474.5"/>
<polygon fill="black" stroke="black" points="217.88,-478 227.88,-474.5 217.88,-471 217.88,-478"/>
</g>
<!-- simple_base64 -->
<g id="node6" class="node">
<title>simple_base64</title>
<polygon fill="lightblue" stroke="black" points="319.25,-420.5 222.25,-420.5 222.25,-384.5 319.25,-384.5 319.25,-420.5"/>
<text xml:space="preserve" text-anchor="middle" x="270.75" y="-397.45" font-family="Times New Roman,serif" font-size="14.00">simple_base64</text>
</g>
<!-- simple_k8s&#45;&gt;simple_base64 -->
<g id="edge5" class="edge">
<title>simple_k8s&#45;&gt;simple_base64</title>
<path fill="none" stroke="black" stroke-dasharray="5,2" d="M65.25,-384.92C65.25,-393.78 65.25,-402.5 65.25,-402.5 65.25,-402.5 210.28,-402.5 210.28,-402.5"/>
<polygon fill="black" stroke="black" points="210.28,-406 220.28,-402.5 210.28,-399 210.28,-406"/>
</g>
<!-- simple_yaml -->
<g id="node7" class="node">
<title>simple_yaml</title>
<polygon fill="lightblue" stroke="black" points="314.38,-348.5 227.12,-348.5 227.12,-312.5 314.38,-312.5 314.38,-348.5"/>
<text xml:space="preserve" text-anchor="middle" x="270.75" y="-325.45" font-family="Times New Roman,serif" font-size="14.00">simple_yaml</text>
</g>
<!-- simple_k8s&#45;&gt;simple_yaml -->
<g id="edge6" class="edge">
<title>simple_k8s&#45;&gt;simple_yaml</title>
<path fill="none" stroke="black" stroke-dasharray="5,2" d="M65.25,-348.08C65.25,-339.22 65.25,-330.5 65.25,-330.5 65.25,-330.5 215.15,-330.5 215.15,-330.5"/>
<polygon fill="black" stroke="black" points="215.15,-334 225.15,-330.5 215.15,-327 215.15,-334"/>
</g>
<!-- simple_testing -->
<g id="node8" class="node">
<title>simple_testing</title>
<polygon fill="lightblue" stroke="black" points="318.5,-276.5 223,-276.5 223,-240.5 318.5,-240.5 318.5,-276.5"/>
<text xml:space="preserve" text-anchor="middle" x="270.75" y="-253.45" font-family="Times New Roman,serif" font-size="14.00">simple_testing</text>
</g>
<!-- simple_k8s&#45;&gt;simple_testing -->
<g id="edge7" class="edge">
<title>simple_k8s&#45;&gt;simple_testing</title>
<path fill="none" stroke="black" stroke-dasharray="5,2" d="M52.25,-348.18C52.25,-317.37 52.25,-258.5 52.25,-258.5 52.25,-258.5 211.02,-258.5 211.02,-258.5"/>
<polygon fill="black" stroke="black" points="211.02,-262 221.02,-258.5 211.02,-255 211.02,-262"/>
</g>
<!-- base -->
<g id="node9" class="node">
<title>base</title>
<polygon fill="lightgray" stroke="black" points="297.75,-204.5 243.75,-204.5 243.75,-168.5 297.75,-168.5 297.75,-204.5"/>
<text xml:space="preserve" text-anchor="middle" x="270.75" y="-181.45" font-family="Times New Roman,serif" font-size="14.00">base</text>
</g>
<!-- simple_k8s&#45;&gt;base -->
<g id="edge8" class="edge">
<title>simple_k8s&#45;&gt;base</title>
<path fill="none" stroke="black" stroke-dasharray="5,2" d="M39.25,-348.25C39.25,-302.49 39.25,-186.5 39.25,-186.5 39.25,-186.5 231.77,-186.5 231.77,-186.5"/>
<polygon fill="black" stroke="black" points="231.77,-190 241.77,-186.5 231.77,-183 231.77,-190"/>
</g>
<!-- time -->
<g id="node10" class="node">
<title>time</title>
<polygon fill="lightgray" stroke="black" points="297.75,-132.5 243.75,-132.5 243.75,-96.5 297.75,-96.5 297.75,-132.5"/>
<text xml:space="preserve" text-anchor="middle" x="270.75" y="-109.45" font-family="Times New Roman,serif" font-size="14.00">time</text>
</g>
<!-- simple_k8s&#45;&gt;time -->
<g id="edge9" class="edge">
<title>simple_k8s&#45;&gt;time</title>
<path fill="none" stroke="black" stroke-dasharray="5,2" d="M26.25,-348.38C26.25,-290.6 26.25,-114.5 26.25,-114.5 26.25,-114.5 232.14,-114.5 232.14,-114.5"/>
<polygon fill="black" stroke="black" points="232.14,-118 242.14,-114.5 232.14,-111 232.14,-118"/>
</g>
<!-- testing -->
<g id="node11" class="node">
<title>testing</title>
<polygon fill="lightgray" stroke="black" points="297.75,-60.5 243.75,-60.5 243.75,-24.5 297.75,-24.5 297.75,-60.5"/>
<text xml:space="preserve" text-anchor="middle" x="270.75" y="-37.45" font-family="Times New Roman,serif" font-size="14.00">testing</text>
</g>
<!-- simple_k8s&#45;&gt;testing -->
<g id="edge10" class="edge">
<title>simple_k8s&#45;&gt;testing</title>
<path fill="none" stroke="black" stroke-dasharray="5,2" d="M13.25,-348.15C13.25,-279.61 13.25,-42.5 13.25,-42.5 13.25,-42.5 232.17,-42.5 232.17,-42.5"/>
<polygon fill="black" stroke="black" points="232.17,-46 242.17,-42.5 232.17,-39 232.17,-46"/>
</g>
</g>
</svg>
